<?xml version="1.0" standalone="no"?><!DOCTYPE svg PUBLIC "-//W3C//DTD SVG 1.1//EN" "http://www.w3.org/Graphics/SVG/1.1/DTD/svg11.dtd"><svg t="1703038495163" class="icon" viewBox="0 0 1024 1024" version="1.1" xmlns="http://www.w3.org/2000/svg" p-id="4332" xmlns:xlink="http://www.w3.org/1999/xlink" width="64" height="64"><path d="M940.617143 382.537143c-5.851429-39.497143-20.48-77.531429-42.422857-114.102857-23.405714-36.571429-51.2-62.902857-81.92-80.457143-84.845714-43.885714-159.451429-30.72-225.28 39.497143-19.017143 21.942857-36.571429 46.811429-49.737143 76.068571-16.091429 35.108571-24.868571 67.291429-26.331429 96.548572 0 4.388571-1.462857 7.314286-4.388571 7.314285-5.851429 0-8.777143-2.925714-11.702857-7.314285-7.314286-17.554286-10.24-38.034286-8.777143-58.514286 0-26.331429 5.851429-49.737143 17.554286-73.142857 27.794286-49.737143 26.331429-95.085714-5.851429-136.045715-29.257143-39.497143-70.217143-55.588571-119.954286-49.737142-40.96 5.851429-78.994286 20.48-114.102857 42.422857-38.034286 23.405714-64.365714 49.737143-80.457143 81.92-43.885714 84.845714-30.72 160.914286 39.497143 225.28 21.942857 19.017143 46.811429 36.571429 76.068572 51.2 33.645714 16.091429 65.828571 23.405714 96.548571 26.331428 4.388571 0 7.314286 1.462857 7.314286 5.851429 0 4.388571-2.925714 7.314286-7.314286 8.777143-46.811429 16.091429-90.697143 13.165714-130.194286-8.777143h-1.462857c-49.737143-27.794286-95.085714-24.868571-136.045714 5.851428-39.497143 30.72-55.588571 70.217143-48.274286 119.954286 5.851429 39.497143 20.48 77.531429 42.422857 114.102857 23.405714 38.034286 51.2 64.365714 83.382857 80.457143 84.845714 45.348571 159.451429 32.182857 223.817143-38.034286 20.48-20.48 36.571429-46.811429 51.2-76.068571 16.091429-33.645714 24.868571-65.828571 26.331429-96.548571 0-4.388571 1.462857-7.314286 5.851428-7.314286 4.388571 0 7.314286 2.925714 8.777143 7.314286 16.091429 46.811429 13.165714 90.697143-8.777143 131.657142-27.794286 49.737143-24.868571 95.085714 5.851429 136.045715 30.72 39.497143 70.217143 55.588571 119.954286 49.737143 39.497143-5.851429 77.531429-20.48 114.102857-42.422858 38.034286-23.405714 64.365714-51.2 80.457143-81.92 45.348571-84.845714 32.182857-159.451429-38.034286-225.28-20.48-19.017143-46.811429-36.571429-76.068571-51.2-33.645714-16.091429-65.828571-23.405714-96.548572-26.331428-4.388571 0-7.314286-1.462857-7.314286-4.388572 0-4.388571 2.925714-8.777143 7.314286-10.24 19.017143-7.314286 38.034286-10.24 58.514286-10.24 26.331429 0 49.737143 7.314286 71.68 19.017143 49.737143 27.794286 95.085714 26.331429 137.508571-5.851428 36.571429-32.182857 52.662857-71.68 46.811429-121.417143m-138.971429-169.691429c27.794286 14.628571 51.2 38.034286 71.68 70.217143 20.48 32.182857 33.645714 67.291429 38.034286 102.4 5.851429 38.034286-7.314286 70.217143-36.571429 93.622857-32.182857 23.405714-67.291429 24.868571-105.325714 2.925715-26.331429-14.628571-55.588571-21.942857-86.308571-21.942858-23.405714 0-46.811429 4.388571-68.754286 11.702858-19.017143 7.314286-27.794286 20.48-26.331429 38.034285 0 20.48 11.702857 32.182857 36.571429 32.182857 27.794286 1.462857 55.588571 8.777143 84.845714 23.405715 27.794286 13.165714 49.737143 27.794286 68.754286 45.348571 59.977143 54.125714 70.217143 118.491429 32.182857 190.171429-14.628571 26.331429-36.571429 51.2-70.217143 70.217143-32.182857 20.48-65.828571 33.645714-102.4 38.034285-38.034286 5.851429-70.217143-7.314286-92.16-36.571428-23.405714-32.182857-24.868571-67.291429-4.388571-105.325715v1.462858c27.794286-48.274286 30.72-99.474286 11.702857-156.525715-7.314286-19.017143-19.017143-27.794286-38.034286-26.331428-20.48 0-32.182857 11.702857-32.182857 36.571428-1.462857 27.794286-8.777143 55.588571-23.405714 84.845715-13.165714 27.794286-27.794286 49.737143-45.348572 68.754285-54.125714 59.977143-118.491429 70.217143-190.171428 32.182857-26.331429-14.628571-51.2-36.571429-70.217143-70.217142-20.48-32.182857-33.645714-65.828571-38.034286-102.4-5.851429-38.034286 7.314286-70.217143 36.571429-93.622858 32.182857-23.405714 67.291429-24.868571 105.325714-4.388571 48.274286 27.794286 99.474286 30.72 153.6 11.702857 19.017143-7.314286 27.794286-19.017143 26.331429-38.034286 0-20.48-11.702857-32.182857-36.571429-32.182857-26.331429-1.462857-55.588571-8.777143-84.845714-21.942857-26.331429-13.165714-49.737143-27.794286-70.217143-46.811428-58.514286-54.125714-70.217143-117.028571-32.182857-190.171429 14.628571-26.331429 36.571429-49.737143 70.217143-70.217143 32.182857-20.48 67.291429-32.182857 102.4-38.034286 38.034286-5.851429 68.754286 7.314286 92.16 38.034286 23.405714 32.182857 24.868571 67.291429 2.925714 105.325714-14.628571 26.331429-21.942857 55.588571-21.942857 86.308572 0 24.868571 2.925714 48.274286 11.702857 70.217143 7.314286 19.017143 20.48 27.794286 39.497143 26.331428 20.48 0 32.182857-11.702857 32.182857-36.571428 1.462857-26.331429 8.777143-55.588571 23.405714-84.845715 13.165714-26.331429 27.794286-49.737143 43.885715-70.217142 57.051429-59.977143 119.954286-70.217143 191.634285-33.645715m-234.057143 299.885715c0-16.091429-5.851429-29.257143-16.091428-40.96-11.702857-11.702857-24.868571-17.554286-39.497143-16.091429-16.091429 0-29.257143 5.851429-40.96 16.091429-11.702857 11.702857-16.091429 24.868571-17.554286 40.96 0 16.091429 5.851429 29.257143 17.554286 40.96 11.702857 10.24 24.868571 16.091429 40.96 16.091428 14.628571 0 27.794286-5.851429 38.034286-16.091428h1.462857c11.702857-13.165714 16.091429-26.331429 16.091428-40.96m-36.571428-20.48c5.851429 5.851429 8.777143 11.702857 7.314286 20.48 0 7.314286-2.925714 13.165714-7.314286 19.017142-5.851429 4.388571-11.702857 7.314286-19.017143 7.314286s-14.628571-2.925714-20.48-7.314286c-4.388571-5.851429-7.314286-11.702857-7.314286-19.017142s2.925714-14.628571 7.314286-20.48c5.851429-5.851429 11.702857-8.777143 20.48-7.314286 7.314286 0 13.165714 1.462857 19.017143 7.314286z" fill="#F6F6EE" p-id="4333"></path></svg>