<?xml version="1.0" standalone="no"?><!DOCTYPE svg PUBLIC "-//W3C//DTD SVG 1.1//EN" "http://www.w3.org/Graphics/SVG/1.1/DTD/svg11.dtd"><svg t="1703038833100" class="icon" viewBox="0 0 1024 1024" version="1.1" xmlns="http://www.w3.org/2000/svg" p-id="22658" xmlns:xlink="http://www.w3.org/1999/xlink" width="64" height="64"><path d="M949.154361 94.14417 76.813456 94.14417c-19.458167 0-35.287691 15.830547-35.287691 35.287691l0 693.863001c0 19.458167 15.829524 35.286668 35.287691 35.286668l142.902664 0 0 62.717414c0 14.128789 11.453866 25.582655 25.582655 25.582655s25.582655-11.453866 25.582655-25.582655l0-62.717414 483.406778 0 0 63.003939c0 14.129812 11.452843 25.582655 25.582655 25.582655s25.582655-11.452843 25.582655-25.582655l0-63.003939 143.69982 0c19.458167 0 35.286668-15.829524 35.286668-35.286668l0-693.863001C984.441029 109.973694 968.612529 94.14417 949.154361 94.14417zM933.275719 807.417243l-840.584644 0L92.691075 145.30948l840.584644 0L933.275719 807.417243z" fill="#F6F6EE" p-id="22659"></path><path d="M200.75221 278.952246l89.095177 0c14.128789 0 25.582655-11.453866 25.582655-25.582655s-11.453866-25.582655-25.582655-25.582655l-89.095177 0c-14.128789 0-25.582655 11.453866-25.582655 25.582655S186.622398 278.952246 200.75221 278.952246z" fill="#F6F6EE" p-id="22660"></path><path d="M468.038766 278.952246l93.550653 0c14.128789 0 25.582655-11.453866 25.582655-25.582655s-11.453866-25.582655-25.582655-25.582655l-93.550653 0c-14.128789 0-25.582655 11.453866-25.582655 25.582655S453.909977 278.952246 468.038766 278.952246z" fill="#F6F6EE" p-id="22661"></path><path d="M735.325321 278.952246l89.094154 0c14.129812 0 25.582655-11.453866 25.582655-25.582655s-11.452843-25.582655-25.582655-25.582655l-89.094154 0c-14.129812 0-25.582655 11.453866-25.582655 25.582655S721.195509 278.952246 735.325321 278.952246z" fill="#F6F6EE" p-id="22662"></path><path d="M200.75221 412.596036l89.095177 0c14.128789 0 25.582655-11.453866 25.582655-25.582655s-11.453866-25.582655-25.582655-25.582655l-89.095177 0c-14.128789 0-25.582655 11.453866-25.582655 25.582655S186.622398 412.596036 200.75221 412.596036z" fill="#F6F6EE" p-id="22663"></path><path d="M468.038766 412.596036l93.550653 0c14.128789 0 25.582655-11.453866 25.582655-25.582655s-11.453866-25.582655-25.582655-25.582655l-93.550653 0c-14.128789 0-25.582655 11.453866-25.582655 25.582655S453.909977 412.596036 468.038766 412.596036z" fill="#F6F6EE" p-id="22664"></path><path d="M735.325321 412.596036l89.094154 0c14.129812 0 25.582655-11.453866 25.582655-25.582655s-11.452843-25.582655-25.582655-25.582655l-89.094154 0c-14.129812 0-25.582655 11.453866-25.582655 25.582655S721.195509 412.596036 735.325321 412.596036z" fill="#F6F6EE" p-id="22665"></path><path d="M200.75221 546.239825l89.095177 0c14.128789 0 25.582655-11.453866 25.582655-25.582655s-11.453866-25.582655-25.582655-25.582655l-89.095177 0c-14.128789 0-25.582655 11.453866-25.582655 25.582655S186.622398 546.239825 200.75221 546.239825z" fill="#F6F6EE" p-id="22666"></path><path d="M468.038766 546.239825l93.550653 0c14.128789 0 25.582655-11.453866 25.582655-25.582655s-11.453866-25.582655-25.582655-25.582655l-93.550653 0c-14.128789 0-25.582655 11.453866-25.582655 25.582655S453.909977 546.239825 468.038766 546.239825z" fill="#F6F6EE" p-id="22667"></path><path d="M735.325321 546.239825l89.094154 0c14.129812 0 25.582655-11.453866 25.582655-25.582655s-11.452843-25.582655-25.582655-25.582655l-89.094154 0c-14.129812 0-25.582655 11.453866-25.582655 25.582655S721.195509 546.239825 735.325321 546.239825z" fill="#F6F6EE" p-id="22668"></path></svg>