<?xml version="1.0" standalone="no"?><!DOCTYPE svg PUBLIC "-//W3C//DTD SVG 1.1//EN" "http://www.w3.org/Graphics/SVG/1.1/DTD/svg11.dtd"><svg t="1702865537952" class="icon" viewBox="0 0 1024 1024" version="1.1" xmlns="http://www.w3.org/2000/svg" p-id="4415" xmlns:xlink="http://www.w3.org/1999/xlink" width="64" height="64"><path d="M557.27209 350.129332H475.79031c-15.452947 0-27.981285 12.529361-27.981285 27.981285S460.338387 406.091902 475.79031 406.091902h81.48178c15.45397 0 27.981285-12.529361 27.981284-27.981285s-12.527314-27.981285-27.981284-27.981285zM321.246515 350.129332h-81.455174c-15.452947 0-27.981285 12.529361-27.981284 27.981285s12.529361 27.981285 27.981284 27.981285h81.455174c15.45397 0 27.981285-12.529361 27.981285-27.981285s-12.527314-27.981285-27.981285-27.981285zM237.805104 290.948465h81.482803c15.45397 0 27.981285-12.529361 27.981284-27.981285S334.741877 234.984872 319.287907 234.984872h-81.482803c-15.452947 0-27.981285 12.529361-27.981285 27.981285s12.528338 27.982308 27.981285 27.982308zM473.859331 290.948465h81.425498c15.454994 0 27.981285-12.529361 27.981285-27.981285S570.739822 234.984872 555.285852 234.984872h-81.425497c-15.45397 0-27.981285 12.529361-27.981285 27.981285s12.526291 27.982308 27.980261 27.982308zM790.359752 350.129332h-81.481779c-15.454994 0-27.981285 12.529361-27.981285 27.981285s12.527314 27.981285 27.981285 27.981285h81.481779c15.454994 0 27.981285-12.529361 27.981285-27.981285s-12.527314-27.981285-27.981285-27.981285zM706.918341 290.948465h81.48178c15.454994 0 27.981285-12.529361 27.981284-27.981285S803.855114 234.984872 788.401144 234.984872h-81.481779c-15.454994 0-27.981285 12.529361-27.981285 27.981285s12.526291 27.982308 27.980261 27.982308z" fill="#bfbfbf" p-id="4416"></path><path d="M875.452779 98.660021H147.929144c-46.367027 0-83.944877 37.59013-83.944877 83.944877v587.615165c0 46.372144 37.57171 83.944877 83.944877 83.944877h61.894675v42.700521c0 15.452947 12.529361 27.981285 27.981285 27.981285 15.45397 0 27.981285-12.529361 27.981285-27.981285v-42.700521h494.435972v42.700521c0 15.452947 12.529361 27.981285 27.981285 27.981285 15.45397 0 27.981285-12.529361 27.981285-27.981285v-42.700521h59.266825c46.37419 0 83.944877-37.572734 83.944877-83.944877V182.604898c0.001023-46.354747-37.578874-83.944877-83.943854-83.944877z m27.981285 671.560042c0 15.46318-12.517081 27.981285-27.981285 27.981284H147.929144c-15.46625 0-27.981285-12.519128-27.981285-27.981284V182.604898c0-15.448854 12.527314-27.981285 27.981285-27.981285H875.452779c15.45397 0 27.981285 12.532431 27.981285 27.981285v587.615165z" fill="#bfbfbf" p-id="4417"></path></svg>