<?xml version="1.0" standalone="no"?><!DOCTYPE svg PUBLIC "-//W3C//DTD SVG 1.1//EN" "http://www.w3.org/Graphics/SVG/1.1/DTD/svg11.dtd"><svg t="1701681211151" class="icon" viewBox="0 0 1024 1024" version="1.1" xmlns="http://www.w3.org/2000/svg" p-id="5910" xmlns:xlink="http://www.w3.org/1999/xlink" width="64" height="64">
    <path d="M810.666667 128H213.333333c-51.2 0-85.333333 34.133333-85.333333 85.333333v597.333334c0 51.2 34.133333 85.333333 85.333333 85.333333h597.333334c51.2 0 85.333333-34.133333 85.333333-85.333333V213.333333c0-51.2-34.133333-85.333333-85.333333-85.333333z m0 682.666667H213.333333V213.333333h597.333334v597.333334z" p-id="5911">
    </path>
    <path d="M682.666667 469.333333h-128V341.333333c0-25.6-17.066667-42.666667-42.666667-42.666666s-42.666667 17.066667-42.666667 42.666666v128H341.333333c-25.6 0-42.666667 17.066667-42.666666 42.666667s17.066667 42.666667 42.666666 42.666667h128v128c0 21.333333 17.066667 42.666667 42.666667 42.666666s42.666667-21.333333 42.666667-42.666666v-128h128c21.333333 0 42.666667-17.066667 42.666666-42.666667s-21.333333-42.666667-42.666666-42.666667z" p-id="5912"></path>
</svg>